<?xml version="1.0" encoding="utf-8"?>
<!-- Generator: Adobe Illustrator 16.0.0, SVG Export Plug-In . SVG Version: 6.00 Build 0)  -->
<!DOCTYPE svg PUBLIC "-//W3C//DTD SVG 1.1//EN" "http://www.w3.org/Graphics/SVG/1.1/DTD/svg11.dtd">
<svg version="1.1" id="Ebene_1" xmlns="http://www.w3.org/2000/svg" xmlns:xlink="http://www.w3.org/1999/xlink" x="0px" y="0px"
	 width="785px" height="249px" viewBox="0 0 785 249" enable-background="new 0 0 785 249" xml:space="preserve">
<rect y="369.18" display="none" fill="#F5FAFB" width="1200" height="386.001"/>
<g>
	<g>
		<path fill="#4993FA" d="M547.824,109.648c0,24.309-36.851,44.077-82.14,44.077c-14.27,0-28.089-1.967-40.376-5.697
			c-9.329,3.695-20.568,5.697-32.339,5.697c-9.302,0-18.325-1.254-26.373-3.639c-11.287,2.412-23.245,3.639-35.608,3.639
			c-51.73,0-93.819-21.904-93.819-48.827c0-26.921,42.088-48.82,93.819-48.82c0.004,0,0.013,0,0.021,0
			c17.749-15.897,49.547-25.649,84.367-25.649c47.046,0,87.824,18.246,96.603,42.809C534.508,81.474,547.824,94.916,547.824,109.648
			z M424.48,136.736c1.859,0,3.724,0.301,5.344,0.893c10.577,3.916,22.979,5.982,35.86,5.982c34.899,0,63.292-15.236,63.292-33.963
			c0-11.962-11.404-22.825-30.483-29.043c-2.403-0.785-4.032-2.1-4.435-3.593c-5.646-20.791-39.469-36.465-78.685-36.465
			c-29.778,0-56.83,8.816-70.586,23.016c-1.72,1.776-5.209,2.849-8.944,2.72c-1.865-0.065-3.41-0.088-4.861-0.088
			c-41.34,0-74.97,17.363-74.97,38.702c0,21.339,33.63,38.708,74.97,38.708c11.357,0,22.267-1.275,32.426-3.801
			c3.018-0.75,6.552-0.588,9.302,0.424c5.979,2.205,12.981,3.377,20.253,3.377c9.363,0,18.221-1.934,24.938-5.443
			C419.721,137.221,422.094,136.736,424.48,136.736z"/>
		<g>
			<path fill="#2EB872" d="M343.221,87.018h-14.009c-1.163,0-2.108,0.506-2.108,1.125v17.667h0.04l18.177-9.755v-7.912
				C345.324,87.526,344.383,87.018,343.221,87.018z"/>
			<path fill="#2EB872" d="M400.607,78.777c-4.436-2.38-11.63-2.38-16.072,0l-35.669,19.145l-3.54,1.896l-18.172,9.756
				l-41.662,22.352c12.636,5.014,28.435,7.998,45.576,7.998c11.352,0,22.256-1.277,32.42-3.801c3.022-0.748,6.563-0.592,9.302,0.422
				c5.974,2.205,12.978,3.379,20.253,3.379c9.369,0,18.217-1.932,24.938-5.438c1.816-0.947,4.189-1.432,6.579-1.432
				c1.86,0,3.724,0.291,5.34,0.887c10.582,3.916,22.978,5.982,35.855,5.982c13.761,0,26.503-2.375,36.901-6.389L400.607,78.777z
				 M391.729,124.8c0,0.477-0.723,0.866-1.612,0.866h-13.085c-0.889,0-1.612-0.389-1.612-0.866v-7.02
				c0-0.476,0.723-0.863,1.612-0.863h13.085c0.89,0,1.612,0.388,1.612,0.863V124.8z M391.729,114.174
				c0,0.472-0.723,0.861-1.612,0.861h-13.085c-0.889,0-1.612-0.39-1.612-0.861v-7.027c0-0.478,0.723-0.867,1.612-0.867h13.085
				c0.89,0,1.612,0.39,1.612,0.867V114.174z M412.723,124.8c0,0.477-0.723,0.866-1.611,0.866H398.02
				c-0.889,0-1.609-0.389-1.609-0.866v-7.02c0-0.476,0.721-0.863,1.609-0.863h13.092c0.889,0,1.611,0.388,1.611,0.863V124.8z
				 M412.723,114.174c0,0.472-0.723,0.861-1.611,0.861H398.02c-0.889,0-1.609-0.39-1.609-0.861v-7.027
				c0-0.478,0.721-0.867,1.609-0.867h13.092c0.889,0,1.611,0.39,1.611,0.867V114.174z"/>
		</g>
	</g>
	<g display="none">
		<g display="inline">
			<path fill="#4993FA" d="M213.109,180.428c6.401,0,10.692,1.258,13.039,2.141c1.638,0.588,1.716,1.467,0.622,2.387l-1.015,0.836
				c-1.167,0.963-2.499,0.963-4.372,0.459c-1.637-0.588-4.294-1.295-7.727-1.295c-7.337,0-12.097,2.975-12.097,6.611
				c0,3.604,4.76,6.705,12.407,6.705c3.906,0,7.028-0.916,8.9-1.633c1.955-0.588,3.439-0.459,4.45,0.545l0.78,0.797
				c0.941,0.912,0.702,1.756-0.853,2.342c-2.421,0.963-7.264,2.471-14.13,2.471c-13.195,0-21.63-4.98-21.63-11.186
				C191.48,185.543,199.914,180.428,213.109,180.428z"/>
			<path fill="#4993FA" d="M234.496,174.314c0-1.133,1.097-1.762,3.2-1.762h3.44c2.112,0,3.201,0.627,3.201,1.762v20.898
				c0,2.098,1.641,2.471,3.122,2.559c1.401,0.084,2.422,0.541,2.422,1.508v1.424c0,1.092-0.938,1.805-3.28,1.805
				c-5.304,0-12.102-0.754-12.102-6.871v-21.322H234.496z"/>
			<path fill="#4993FA" d="M274.699,180.428c12.097,0,21.934,4.648,21.934,11.182c0,6.578-9.835,11.186-21.934,11.186
				c-12.103,0-21.856-4.607-21.856-11.186C252.843,185.076,262.597,180.428,274.699,180.428z M274.699,198.271
				c6.475,0,11.867-2.676,11.867-6.662c0-3.938-5.392-6.654-11.867-6.654c-6.481,0-11.789,2.719-11.789,6.654
				C262.915,195.596,268.218,198.271,274.699,198.271z"/>
			<path fill="#4993FA" d="M302.565,182.689c0-1.129,1.176-1.756,3.277-1.756h3.359c2.185,0,3.278,0.627,3.278,1.756v10.893
				c0,2.6,1.241,4.357,6.167,4.357c7.176,0,11.161-3.393,11.161-7.205v-8.045c0-1.125,1.093-1.756,3.275-1.756h3.363
				c2.107,0,3.274,0.627,3.274,1.756v17.848c0,1.174-1.171,1.764-3.274,1.764h-3.048c-2.108,0-3.201-0.59-3.201-1.764v-1.258
				c0-0.498,0.158-0.965,0.158-0.965h-0.158c-1.871,2.178-7.024,4.486-13.818,4.486c-8.508,0-13.821-2.299-13.821-8.129v-11.982
				H302.565L302.565,182.689z"/>
			<path fill="#4993FA" d="M364.393,180.428c8.743,0,11.636,3.057,11.636,3.057h0.153c0,0-0.153-0.545-0.153-1.211v-7.959
				c0-1.133,1.088-1.762,3.197-1.762h3.435c2.117,0,3.205,0.627,3.205,1.762v26.219c0,1.17-1.088,1.762-3.205,1.762h-2.883
				c-2.112,0-3.202-0.545-3.202-1.596v-0.842c0-0.416,0.154-0.75,0.154-0.75h-0.154c0,0-3.361,3.688-12.493,3.688
				c-10.773,0-17.724-4.564-17.724-11.186C346.36,184.83,353.85,180.428,364.393,180.428z M366.266,198.314
				c5.153,0,9.989-2.008,9.989-6.74c0-3.313-3.2-6.578-9.915-6.578c-5.392,0-9.99,2.391-9.99,6.617
				C356.354,195.678,360.414,198.314,366.266,198.314z"/>
		</g>
		<g display="inline">
			<path fill="#2EB872" d="M394.994,174.314c0-1.133,1.172-1.762,3.275-1.762h3.358c2.185,0,3.276,0.627,3.276,1.762v8.625
				c0,1.053-0.234,1.803-0.234,1.803h0.158c1.95-2.057,6.949-4.318,13.817-4.318c8.824,0,13.896,2.469,13.896,8.129v11.98
				c0,1.174-1.175,1.762-3.277,1.762h-3.359c-2.18,0-3.277-0.588-3.277-1.762v-10.889c0-2.596-1.242-4.357-6.24-4.357
				c-6.95,0-11.476,3.016-11.476,7.08v8.17c0,1.174-1.093,1.764-3.279,1.764h-3.356c-2.108,0-3.276-0.59-3.276-1.764v-26.223
				H394.994L394.994,174.314z"/>
			<path fill="#2EB872" d="M460.337,180.428c12.098,0,21.931,4.648,21.931,11.182c0,6.578-9.833,11.186-21.931,11.186
				c-12.107,0-21.86-4.607-21.86-11.186C438.477,185.076,448.227,180.428,460.337,180.428z M460.337,198.271
				c6.472,0,11.862-2.676,11.862-6.662c0-3.938-5.391-6.654-11.862-6.654c-6.488,0-11.794,2.719-11.794,6.654
				C448.545,195.596,453.849,198.271,460.337,198.271z"/>
			<path fill="#2EB872" d="M488.748,182.689c0-1.129,1.089-1.756,3.196-1.756h3.053c2.107,0,3.194,0.627,3.194,1.756v1.303
				c0,0.459-0.147,0.965-0.147,0.965h0.147c1.96-2.096,6.795-4.527,13.04-4.527c6.021,0,9.998,1.506,11.635,4.402h0.156
				c2.109-2.221,7.335-4.402,13.589-4.402c8.271,0,13.03,2.512,13.03,8.129v11.98c0,1.174-1.168,1.764-3.276,1.764h-3.354
				c-2.193,0-3.278-0.59-3.278-1.764v-10.977c0-2.428-0.861-4.273-5.473-4.273c-6.707,0-10.144,3.686-10.144,7.416v7.828
				c0,1.176-1.088,1.762-3.199,1.762h-3.437c-2.112,0-3.274-0.586-3.274-1.762v-10.977c0-2.303-0.628-4.273-5.301-4.273
				c-7.028,0-10.316,3.855-10.316,7.416v7.83c0,1.174-1.087,1.762-3.193,1.762h-3.442c-2.108,0-3.195-0.588-3.195-1.762v-17.84
				H488.748L488.748,182.689z"/>
			<path fill="#2EB872" d="M575.868,180.428c11.313,0,17.646,4.32,17.646,10.178c0,0.926-1.49,1.799-3.437,1.799h-24.282
				c0.627,3.855,5.94,5.863,11.95,5.863c3.667,0,6.714-0.752,8.592-1.383c1.951-0.498,3.354-0.381,4.368,0.592l0.933,0.832
				c0.939,0.967,0.626,1.805-1.089,2.35c-2.577,0.877-7.263,2.135-13.507,2.135c-13.195,0-21.392-5.107-21.392-11.184
				C555.646,185.037,563.92,180.428,575.868,180.428z M583.672,189.182c-0.156-2.975-3.509-4.738-8.039-4.738
				c-5.076,0-8.665,1.893-9.605,4.738H583.672z"/>
		</g>
	</g>
</g>
<g id="DN">
	<path fill="#4993FA" d="M20.021,191.201c0-3.064-0.182-5.697-0.376-7.846h12.508l0.66,3.254h0.195
		c3.412-2.502,8.708-3.783,15.436-3.783c10.141,0,19.232,4.449,19.232,11.912c0,8.533-10.706,12.547-21.028,12.547
		c-5.591,0-9.945-1.148-12.031-2.684h-0.188v11.629H20.035v-25.029H20.021L20.021,191.201z M34.42,196.711
		c0,0.566,0.101,1.105,0.283,1.533c0.955,1.953,4.266,3.443,8.438,3.443c6.251,0,9.946-2.639,9.946-6.605
		c0-3.736-3.317-6.559-9.763-6.559c-4.071,0-7.665,1.525-8.62,3.688c-0.182,0.379-0.283,0.854-0.283,1.287L34.42,196.711
		L34.42,196.711z"/>
	<path fill="#4993FA" d="M76.677,172.768h14.4v13.363h0.182c1.514-1.008,3.405-1.777,5.68-2.396c2.086-0.576,4.831-0.91,7.482-0.91
		c9.198,0,16.209,3.211,16.209,10.24v13.684h-14.4v-12.873c0-3.063-2.086-5.162-7.489-5.162c-3.788,0-6.15,1.236-7.193,2.537
		c-0.383,0.479-0.465,1.102-0.465,1.621v13.877h-14.4v-33.98H76.677z"/>
	<path fill="#4993FA" d="M177.94,194.789c0,8.57-12.031,12.496-24.445,12.496c-13.545,0-23.969-4.498-23.969-12.063
		c0-7.561,9.851-12.396,24.722-12.396C168.46,182.826,177.94,187.752,177.94,194.789z M152.27,173.152l8.144,7.273h-9.853
		L139,173.152H152.27z M144.397,195.033c0,4.018,3.322,7.031,9.48,7.031c5.585,0,9.184-2.814,9.184-7.031
		c0-3.492-2.649-7.035-9.184-7.035C146.961,187.998,144.397,191.584,144.397,195.033z"/>
	<path fill="#4993FA" d="M186.842,190.818c0-2.908-0.188-5.402-0.382-7.463h12.501l0.667,3.209h0.289
		c1.892-1.488,6.622-3.738,14.299-3.738c9.477,0,16.58,3.154,16.58,10.053v13.881h-14.398v-12.963c0-3.021-2.087-5.076-7.295-5.076
		c-3.977,0-6.346,1.389-7.294,2.727c-0.383,0.428-0.564,1.15-0.564,1.824v13.486h-14.4L186.842,190.818L186.842,190.818z"/>
	<path fill="#4993FA" d="M286.591,183.355c-0.195,1.48-0.384,3.439-0.384,6.928v13.076c0,4.504-1.796,8.186-7.011,10.527
		c-5.12,2.197-12.031,2.863-18.854,2.863c-6.063,0-12.502-0.613-16.667-1.813l2.833-5.498c2.936,0.861,8.047,1.777,13.451,1.777
		c6.823,0,12.031-1.871,12.031-6.188v-1.525h-0.189c-2.752,1.965-7.191,3.064-12.502,3.064c-11.459,0-19.605-4.688-19.605-11.441
		c0-7.516,9.661-12.303,21.026-12.303c6.347,0,10.328,1.391,12.703,3.309h0.184l0.472-2.777H286.591L286.591,183.355z
		 M271.809,192.873c0-0.479-0.101-0.961-0.282-1.34c-1.036-1.914-3.788-3.209-7.767-3.209c-5.214,0-9.479,2.395-9.479,6.654
		c0,3.492,3.412,6.219,9.479,6.219c3.694,0,6.622-1.244,7.577-2.965c0.376-0.529,0.472-1.295,0.472-1.918V192.873z"/>
	<path fill="#4993FA" d="M332.994,176.65v6.705h10.328v5.355h-10.328v8.473c0,2.816,1.333,4.111,5.686,4.111
		c1.806,0,3.225-0.094,4.261-0.188l0.095,5.498c-1.893,0.389-5.296,0.627-9.374,0.627c-4.645,0-8.521-0.811-10.8-2.01
		c-2.651-1.383-3.979-3.633-3.979-6.941v-9.568h-6.158v-5.357h6.158v-5.07L332.994,176.65z"/>
	<path fill="#4993FA" d="M351.666,191.057c0-3.449-0.194-5.699-0.389-7.701h12.415l0.471,4.309h0.383
		c2.369-3.396,8.053-4.838,12.496-4.838c1.325,0,1.998,0,3.041,0.104v6.836c-1.043-0.098-2.281-0.189-3.889-0.189
		c-5.305,0-8.909,1.436-9.858,3.684c-0.182,0.477-0.282,1.049-0.282,1.633v11.859h-14.387L351.666,191.057L351.666,191.057z"/>
	<path fill="#4993FA" d="M432.655,194.789c0,8.57-12.031,12.496-24.439,12.496c-13.546,0-23.975-4.498-23.975-12.063
		c0-7.561,9.851-12.396,24.722-12.396C423.174,182.826,432.655,187.752,432.655,194.789z M399.118,195.033
		c0,4.018,3.315,7.031,9.475,7.031c5.592,0,9.191-2.814,9.191-7.031c0-3.492-2.651-7.035-9.191-7.035
		C401.669,187.998,399.118,191.584,399.118,195.033z M415.026,213.988c0,1.822-2.739,3.348-6.534,3.348
		c-3.788,0-6.724-1.523-6.724-3.348c0-1.959,2.936-3.398,6.817-3.398C412.187,210.584,415.026,212.016,415.026,213.988z"/>
</g>
<g id="PT">
	<path fill="#2EB872" d="M448.349,189.43h6.038v-11.348c4.77-0.383,10.978-0.641,17.528-0.641c10.812,0,17.949,0.936,23.482,3.047
		c5.955,2.236,9.612,5.932,9.612,11.051c0,5.631-3.908,9.508-9.437,11.861c-6.051,2.539-15.242,3.775-26.471,3.775
		c-6.723,0-11.482-0.205-14.72-0.428v-12.205h-6.038v-5.113H448.349L448.349,189.43z M478.726,194.551H467.33v7.387
		c1.192,0.088,2.978,0.088,4.505,0.088c11.911,0,19.488-3.178,19.488-10.27c0-6.277-6.895-9.242-18.126-9.242
		c-2.81,0-4.683,0.125-5.867,0.258v6.658h11.396V194.551z"/>
	<path fill="#2EB872" d="M536.826,206.758l-0.747-2.105h-0.264c-2.733,1.678-6.976,2.582-11.92,2.582
		c-8.419,0-13.433-3.09-13.433-6.438c0-5.469,9.7-8.08,24.414-8.045v-0.301c0-1.125-1.193-2.715-7.577-2.715
		c-4.246,0-8.758,0.73-11.482,1.59l-2.39-4.203c2.903-0.814,8.595-1.854,16.172-1.854c13.872,0,18.304,4.127,18.304,9.064v7.313
		c0,2.016,0.154,3.965,0.59,5.113h-11.667V206.758L536.826,206.758z M528.496,176.576l7.319,6.539h-8.848l-10.467-6.539H528.496z
		 M535.307,196.83c-6.815-0.037-12.089,0.773-12.089,3.313c0,1.678,2.213,2.488,5.104,2.488c3.239,0,5.88-1.066,6.722-2.4
		c0.17-0.354,0.265-0.734,0.265-1.123L535.307,196.83L535.307,196.83z"/>
	<path fill="#2EB872" d="M575.716,206.758v-28.979h15.147l11.911,10.617c3.404,3.055,6.814,6.66,9.36,9.928h0.25
		c-0.841-3.826-1.104-7.732-1.104-12.082v-8.469h11.917v28.975H609.59l-12.25-11.176c-3.405-3.084-7.147-6.836-9.964-10.229
		l-0.252,0.043c0.34,3.826,0.515,7.91,0.515,12.641v8.721h-11.924L575.716,206.758L575.716,206.758z"/>
	<path fill="#2EB872" d="M657.641,206.758l-0.767-2.105h-0.251c-2.729,1.678-6.974,2.582-11.912,2.582
		c-8.438,0-13.444-3.09-13.444-6.438c0-5.469,9.7-8.08,24.414-8.045v-0.301c0-1.125-1.188-2.715-7.563-2.715
		c-4.262,0-8.759,0.73-11.484,1.59l-2.388-4.203c2.89-0.814,8.595-1.854,16.172-1.854c13.856,0,18.295,4.127,18.295,9.064v7.313
		c0,2.016,0.163,3.965,0.597,5.113h-11.667L657.641,206.758L657.641,206.758z M644.711,177.863c0.422,1.553,2.728,2.752,6.296,2.752
		c3.995,0,6.213-1.369,6.471-2.752h6.037c-0.251,3.619-4.837,6.068-12.502,6.068c-7.908,0-12.244-2.582-12.427-6.068H644.711z
		 M639.095,176.191c-0.088-2.75,2.544-4.598,6.887-4.598c2.137,0,3.832,0.383,5.533,0.857c1.357,0.385,2.554,0.725,3.657,0.725
		c1.356,0,1.96-0.338,2.211-1.723h5.869c0.25,3.486-2.464,4.951-6.887,4.951c-2.382,0-4.009-0.473-5.786-0.943
		c-1.533-0.383-2.299-0.604-3.323-0.604c-1.274,0-1.873,0.604-2.028,1.34h-6.133V176.191z M656.106,196.83
		c-6.798-0.037-12.073,0.773-12.073,3.313c0,1.678,2.219,2.488,5.102,2.488c3.229,0,5.868-1.066,6.724-2.4
		c0.177-0.354,0.252-0.734,0.252-1.123v-2.275h-0.004V196.83z"/>
	<path fill="#2EB872" d="M678.914,192.438c0-2.613-0.171-4.855-0.339-6.701h11.23l0.592,2.883h0.252
		c1.715-1.338,5.955-3.354,12.854-3.354c8.506,0,14.891,2.834,14.891,9.021v12.473h-12.931v-11.656c0-2.701-1.892-4.559-6.565-4.559
		c-3.566,0-5.689,1.25-6.545,2.457c-0.347,0.393-0.517,1.031-0.517,1.637v12.117h-12.937v-14.318H678.914L678.914,192.438z"/>
	<path fill="#2EB872" d="M768.503,185.736c-0.176,1.33-0.345,3.096-0.345,6.232v11.738c0,4.033-1.621,7.346-6.296,9.457
		c-4.601,1.975-10.808,2.574-16.938,2.574c-5.447,0-11.221-0.559-14.965-1.633l2.545-4.938c2.638,0.771,7.225,1.582,12.074,1.582
		c6.133,0,10.813-1.678,10.813-5.539v-1.377h-0.163c-2.476,1.771-6.472,2.75-11.231,2.75c-10.291,0-17.61-4.215-17.61-10.275
		c0-6.748,8.686-11.045,18.886-11.045c5.705,0,9.273,1.244,11.409,2.965h0.157l0.427-2.494h11.238V185.736z M755.233,194.285
		c0-0.426-0.088-0.854-0.265-1.197c-0.93-1.729-3.403-2.885-6.974-2.885c-4.674,0-8.507,2.148-8.507,5.975
		c0,3.143,3.071,5.592,8.507,5.592c3.323,0,5.956-1.117,6.814-2.67c0.341-0.465,0.422-1.154,0.422-1.715v-3.1H755.233z"/>
</g>
</svg>
